<?xml version="1.0" standalone="no"?>
<!DOCTYPE svg PUBLIC "-//W3C//DTD SVG 1.1//EN" "http://www.w3.org/Graphics/SVG/1.1/DTD/svg11.dtd" >
<svg>
<metadata>
Created by FontForge 20110222 at Mon Mar  7 11:23:27 2011
 By www-data
Indonesiana (c) Fizzetica TypeFoundary. 2009. http://fizzlabz.ning.com 
</metadata>
<defs>
<font id="IndonesianaSerif" horiz-adv-x="1014" >
  <font-face 
    font-family="Indonesiana Serif Free ;)"
    font-weight="400"
    font-stretch="normal"
    units-per-em="2048"
    panose-1="2 0 5 0 0 0 0 0 0 0"
    ascent="1638"
    descent="-410"
    x-height="883"
    cap-height="1420"
    bbox="-160 -418 2705 1579"
    underline-thickness="150"
    underline-position="-142"
    unicode-range="U+0020-2122"
  />
    <missing-glyph />
    <glyph glyph-name="space" unicode=" " horiz-adv-x="508" 
 />
    <glyph glyph-name="space" unicode="&#xa0;" horiz-adv-x="508" 
 />
    <glyph glyph-name="exclam" unicode="!" horiz-adv-x="672" 
 />
    <glyph glyph-name="quotedbl" unicode="&#x22;" horiz-adv-x="672" 
 />
    <glyph glyph-name="numbersign" unicode="#" horiz-adv-x="1336" 
 />
    <glyph glyph-name="dollar" unicode="$" 
 />
    <glyph glyph-name="percent" unicode="%" horiz-adv-x="1610" 
 />
    <glyph glyph-name="ampersand" unicode="&#x26;" horiz-adv-x="1683" 
 />
    <glyph glyph-name="quotesingle" unicode="'" horiz-adv-x="346" 
 />
    <glyph glyph-name="asterisk" unicode="*" horiz-adv-x="1024" 
d="M498 1294q-4 71 -37 130q-37 66 -37 84q0 32 23.5 51.5t62.5 19.5q37 0 61.5 -18t24.5 -47q0 -21 -36 -89q-33 -61 -37 -130q66 25 113 75q51 55 69 61q11 3 21 3q18 0 35 -10q26 -17 38 -53q6 -19 6 -36q0 -15 -4 -28q-10 -30 -38 -38q-6 -2 -19 -2q-25 0 -76 9
q-28 5 -55 5q-41 0 -81 -11q44 -55 105 -83q68 -32 79 -47q13 -18 13 -38q0 -9 -2 -17q-8 -30 -39 -53q-29 -22 -59 -22q-1 0 -1 1q-31 0 -48 23q-12 17 -22 94q-10 67 -47 125q-38 -58 -46 -124q-9 -75 -20 -90q-19 -25 -49 -27h-5q-28 0 -57 21q-30 21 -39 51q-4 10 -4 20
q0 17 11 32q13 17 83 51q61 29 105 82q-41 11 -80 11q-27 0 -53 -5q-54 -11 -78 -11q-9 0 -14 2q-30 9 -41 38q-6 13 -6 29q0 17 6 36q11 35 36 53q17 12 34 12q9 0 18 -3q20 -6 74 -62q47 -49 112 -75z" />
    <glyph glyph-name="plus" unicode="+" 
d="M437 647h-350v140h350v369l1 1h139v-370h349l1 -1v-139h-350v-370h-140v370z" />
    <glyph glyph-name="comma" unicode="," horiz-adv-x="557" 
d="M238 258q44 0 88.5 -65.5t44.5 -151.5q0 -109 -71 -226.5t-139 -117.5v43q73 43 87 190q0 119 -129 161v42z" />
    <glyph glyph-name="hyphen" unicode="-" horiz-adv-x="670" 
d="M156 409q-40 0 -40 28v83q0 29 41 29h356q41 0 41 -29v-83q0 -28 -40 -28h-358z" />
    <glyph glyph-name="period" unicode="." horiz-adv-x="557" 
d="M145 167l82 84q15 14 29 14q13 0 31 -16l80 -86q12 -16 12 -29q0 -15 -14 -31l-80 -88q-20 -20 -29 -20q-16 0 -29 14l-88 101q-10 13 -10 26q0 15 16 31z" />
    <glyph glyph-name="slash" unicode="/" horiz-adv-x="569" 
 />
    <glyph glyph-name="zero" unicode="0" 
d="M488 963h18q194 0 344 -159q122 -144 122 -323q0 -219 -175 -376q-138 -107 -291 -107h-18q-172 0 -316 131q-148 151 -148 348v8q0 203 156 354q141 124 308 124zM249 486q0 -202 125 -323q61 -48 126 -48q118 0 199 147q51 101 51 226q0 152 -80 270q-77 100 -170 100
q-115 0 -195 -138q-56 -104 -56 -234z" />
    <glyph glyph-name="one" unicode="1" 
 />
    <glyph glyph-name="two" unicode="2" 
d="M338 979h318q128 0 210 -85q69 -84 69 -171q0 -111 -126 -223q-105 -80 -259 -152q-24 -4 -72 -49q-43 -51 -43 -99v-12q0 -82 111 -125q22 -6 38 -6h176l2 -3v-53l-2 -3h-185q-191 0 -292 166q-13 17 -13 116q0 106 140 220q67 47 181 101q78 44 138 96q39 47 39 92
q0 64 -83 92q-28 7 -57 7h-290l-3 3v85z" />
    <glyph glyph-name="three" unicode="3" 
 />
    <glyph glyph-name="four" unicode="4" 
 />
    <glyph glyph-name="five" unicode="5" 
 />
    <glyph glyph-name="six" unicode="6" 
 />
    <glyph glyph-name="seven" unicode="7" 
 />
    <glyph glyph-name="eight" unicode="8" 
 />
    <glyph glyph-name="nine" unicode="9" 
d="M459 990h27q140 0 288 -111q76 -70 92 -108q42 -60 42 -191q0 -258 -94 -414q-33 -52 -96 -94q-142 -78 -256 -78h-289l-3 3v52l3 3h190q68 0 166 60q49 37 76 78l8 15q-87 -22 -165 -22h-24q-218 0 -327 161q-65 101 -65 231v12q0 180 99 272q68 65 142 94q95 37 186 37
zM247 593v-11q0 -126 71 -224q66 -82 150 -82q103 0 178 129q41 90 41 182q0 151 -94 256q-61 55 -127 55q-101 0 -173 -120q-46 -88 -46 -185z" />
    <glyph glyph-name="colon" unicode=":" horiz-adv-x="557" 
 />
    <glyph glyph-name="semicolon" unicode=";" horiz-adv-x="557" 
 />
    <glyph glyph-name="semicolon" unicode="&#x37e;" horiz-adv-x="557" 
 />
    <glyph glyph-name="less" unicode="&#x3c;" 
 />
    <glyph glyph-name="greater" unicode="&#x3e;" 
 />
    <glyph glyph-name="question" unicode="?" horiz-adv-x="748" 
 />
    <glyph glyph-name="at" unicode="@" horiz-adv-x="2019" 
 />
    <glyph glyph-name="A" unicode="A" horiz-adv-x="1540" 
d="M981 1415v0q0 -14 -13 -33q-9 -12 -31 -18l-13 -2q36 -40 53 -94q15 -38 15 -122v-7l-1 -52q41 44 54 51q36 28 63 42q99 52 213 52q98 0 159 -54q22 -24 26 -40q12 -28 12 -52v-1q0 -48 -51 -63l-18 -2q-31 0 -49 24q-5 11 -5 18q0 15 16 23l4 1q10 0 13 -13v0
q0 -11 -11 -11q-10 1 -10 6q-2 -1 -2 -4q0 -17 20 -23h5q22 0 38 26q3 8 3 16q0 29 -37 57q-49 32 -127 32q-47 0 -85 -13v-1h19q72 0 100 -23q29 -22 35 -43q4 -11 4 -21v-5q0 -26 -26 -45q-10 -6 -14 -6h-1v1q21 14 21 29l1 14q0 29 -15 41q-16 17 -45 26q-24 8 -55 8
q-51 0 -100 -16v0q20 2 39 2h5q49 0 82 -24q27 -22 27 -57q0 -11 -4 -22h-1v10q0 47 -32 61q-34 15 -77 15h-4q-71 0 -136 -47q-38 -27 -54 -79q-11 -35 -11 -68v-6q0 -77 54 -132q36 -29 68 -35v-1q-36 0 -78 33q-27 25 -33 36q-15 24 -15 27h-1v-1q7 -68 52 -144
q17 -30 61 -82l25 -27v0q-28 17 -72 57q-42 42 -51 57q-16 21 -25 39q-8 15 -13 29h-1q-19 -71 -19 -152v-5q0 -122 30 -204q20 -54 48 -111q13 -23 13 -25q-19 19 -35 43q-35 55 -59 121q-32 92 -32 168v21v0q-2 -41 -3 -85q0 -300 139 -487q16 -21 40 -46h-1
q-21 12 -62 50q-48 52 -71 91q-35 57 -58 118q-19 46 -35 117q-13 63 -13 85q-5 42 -5 120v18q0 60 10 102q-45 -28 -76 -35h-1q16 9 44 35q31 35 39 53q-44 -40 -77 -58q-33 -20 -89 -42q-43 -17 -98 -30v1q83 34 149 81q57 42 90 91q21 34 32 59q13 34 13 38
q-89 -70 -204 -70q-140 0 -206 109q-6 11 -6 13q10 -13 28 -30q68 -60 148 -60q97 0 175 67l4 4q-33 -21 -71 -35q-50 -17 -84 -17h-10q-53 0 -100 33q-21 17 -21 32q4 16 13 16h1q11 0 15 -10v-2q-2 -11 -10 -11h-1q-6 0 -9 6v0v-2q0 -28 73 -51q18 -3 31 -3h8q48 0 108 24
q43 20 87 61q23 24 23 26l-1 3q-46 -43 -71 -57q-28 -18 -49 -24v1q32 16 85 60q30 27 30 30q-18 34 -39 64q-25 30 -53 52q-38 -15 -78 -15q-35 0 -90 15q-55 11 -90 11q-78 0 -99 -51q-5 -13 -5 -25v-5q0 -25 20 -47q15 -12 29 -12h3q16 0 24 23v3l-1 6v0q-6 -6 -12 -6
q-12 2 -12 11v2q0 10 13 12h1q14 0 18 -22v-7q0 -29 -35 -39l-16 -2q-44 0 -72 49q-11 23 -11 43v5q0 36 30 69q21 19 40 26q22 10 47 15l5 1v1h-14q-77 0 -128 -44q-22 -23 -26 -33q-8 -13 -15 -34q-3 -16 -4 -16v0v3q0 69 76 115q47 25 122 25h6q59 0 135 -16l24 -1h18v1
q-91 42 -181 42h-2q-155 0 -252 -117q-42 -53 -54 -107q-3 -16 -3 -40q0 -89 45 -150v0q-29 19 -44 67q-12 40 -12 77q0 114 87 202l18 16v0q-77 -41 -118 -128q-23 -50 -23 -99v-7q0 -93 80 -168q23 -19 33 -23v-1q-27 5 -56 27q-85 67 -85 175q0 68 33 144q56 119 183 170
q79 30 155 30q115 0 247 -78l29 -18q11 4 25 18q13 18 13 37q0 27 -32 37l-11 1l-13 -2v1q0 4 11 11q11 6 22 6t27 -7v1q-17 25 -49 25q-25 0 -42 -22v1q15 32 45 42q14 5 27 5h6q48 0 67 -42q10 -24 10 -52v-1q0 -67 -38 -100l-4 -5q40 -35 59 -59q24 -31 24 -34h1
q10 18 21 54q13 50 13 100v7q0 66 -21 107q-10 15 -29 34q-24 20 -54 20h-14q-19 -1 -54 -29v0q38 46 49 46q16 7 36 7q17 0 75 -13q10 -1 18 -1q32 0 52 27z" />
    <glyph glyph-name="B" unicode="B" horiz-adv-x="1219" 
d="M858 1435l292 -662l-456 -212l-62 124q315 146 322 146l-234 540zM671 1334h2l49 -113v-3l-316 -139l60 -144l282 120h2q45 -96 45 -107l-277 -127l120 -271q-130 -65 -137 -65l-284 650q443 199 454 199zM221 728h5l251 -432h4l432 247h5q-69 -286 -73 -290l-439 -249
h-4l-256 434v2z" />
    <glyph glyph-name="C" unicode="C" horiz-adv-x="1399" 
 />
    <glyph glyph-name="D" unicode="D" horiz-adv-x="1518" 
d="M913 1434h1q0 -15 -13 -34q-9 -12 -32 -18l-13 -1q36 -41 54 -96q15 -39 15 -124v-7l-1 -52q42 44 54 51q37 28 65 43q100 53 216 53q99 0 160 -55q23 -25 27 -41q12 -28 12 -52v-2q0 -48 -52 -63q-8 -2 -18 -2q-31 0 -50 24q-5 11 -5 18q0 16 17 24l4 1q10 0 13 -13v-1
q0 -11 -12 -11q-10 1 -10 6q-1 0 -1 -4q0 -17 20 -23h5q22 0 38 26q4 9 4 17q0 29 -38 57q-50 33 -129 33q-48 0 -86 -14v0h19q73 0 102 -23q29 -24 35 -44q4 -11 4 -21v-6q0 -26 -26 -45q-11 -6 -15 -6v0v0q21 14 21 30v14q0 29 -15 42q-15 17 -45 26q-24 8 -55 8
q-53 0 -102 -16v0q20 2 40 2h4q50 0 84 -24q27 -23 27 -58q0 -11 -4 -23h-1v10q0 48 -33 62q-34 15 -78 15h-4q-71 0 -137 -46q-38 -29 -55 -81q-11 -36 -11 -69v-6q0 -78 55 -133q36 -31 68 -36v-1q-36 0 -79 33q-27 26 -33 37q-15 24 -15 27h-1v-1q7 -68 52 -146
q18 -30 62 -83l26 -27h-1q-27 17 -72 57q-43 43 -52 58q-16 21 -26 40q-7 15 -13 29h-1q-19 -72 -19 -154v-5q0 -123 31 -207q20 -55 49 -112q12 -24 12 -26q-19 19 -35 44q-36 56 -60 122q-32 94 -32 171v22v0q-3 -42 -3 -87q0 -304 140 -493q17 -21 41 -47h-1
q-21 12 -63 51q-49 53 -71 92q-36 58 -59 119q-19 47 -36 119q-13 64 -14 86q-4 43 -4 122v18q0 61 10 104q-46 -29 -77 -36h-1q17 9 44 35q32 36 40 54q-44 -40 -78 -58q-33 -21 -90 -43q-44 -18 -100 -31v1q84 35 152 83q57 42 90 92q22 34 33 60q13 34 13 38
q-90 -71 -207 -71q-142 0 -208 110q-6 12 -6 14q10 -14 28 -31q69 -60 150 -60q99 0 178 67l4 4q-34 -21 -72 -35q-51 -18 -85 -18h-10q-55 0 -102 34q-21 18 -21 33q3 16 13 16h1q11 0 15 -11v-2q-2 -11 -10 -11h-1q-6 0 -9 7v0v-2q0 -29 74 -52q18 -4 32 -4h8q48 0 109 25
q44 21 88 62q24 24 24 26l-2 3q-46 -43 -72 -57q-29 -18 -49 -25v1q32 17 86 61q30 28 30 30q-18 35 -40 65q-25 30 -53 53q-39 -16 -79 -16q-35 0 -92 16q-55 11 -91 11q-78 0 -100 -52q-5 -13 -5 -25v-5q0 -26 20 -48q16 -12 29 -12h4q16 0 24 24v3l-1 6v0q-6 -6 -12 -6
q-12 2 -12 11v2q0 10 13 12h1q14 0 18 -23v-6q0 -30 -35 -40l-17 -2q-44 0 -72 50q-11 23 -11 43v5q0 37 29 70q22 20 41 26q23 10 48 16l5 1v0l-14 1q-79 0 -130 -45q-23 -23 -26 -34q-9 -13 -15 -34q-3 -16 -4 -16h-1v3q0 70 78 116q47 26 123 26h7q59 0 136 -16l24 -1h19
v0q-92 43 -184 43h-2q-157 0 -255 -118q-43 -54 -55 -109q-3 -16 -3 -40q0 -90 46 -153h-1q-29 20 -44 69q-12 40 -12 78q0 115 88 204l18 17v0q-78 -42 -119 -130q-23 -51 -23 -100v-7q0 -95 80 -171q23 -19 33 -23v-1q-26 5 -56 28q-86 67 -86 176q0 70 33 147
q57 120 186 172q80 31 157 31q117 0 250 -80l29 -18q12 4 26 18q13 19 13 37q0 29 -33 38l-10 1l-14 -2v1q0 4 12 12q11 5 21 5q12 0 28 -6v0q-17 25 -49 25q-26 0 -43 -21v0q16 33 46 43q14 5 27 5h6q49 0 68 -42q10 -24 10 -53v-2q0 -67 -38 -101l-4 -5q40 -35 59 -60
q25 -31 25 -34v0q11 18 21 55q14 50 14 101v7q0 67 -22 108q-9 16 -28 35q-25 20 -55 20h-14q-20 -1 -55 -29v0q38 47 50 47q15 7 36 7q18 0 76 -13q10 -1 18 -1q33 0 52 27z" />
    <glyph glyph-name="E" unicode="E" horiz-adv-x="1151" 
d="M943 1091q113 0 141 -109q7 -32 7 -70q0 -109 -51 -168q-33 -38 -63 -57q-88 -55 -199 -55q-66 0 -159 26q-105 24 -175 24h-11q-140 0 -180 -100q-9 -27 -9 -46q0 -46 30 -86q31 -31 65 -31q35 0 48 42l1 8q-1 11 -3 11q-9 -11 -19 -11h-4q-21 3 -21 18v5q4 22 22 22h4
q22 0 32 -30q2 -9 2 -18v-4q0 -64 -81 -77l-16 -1q-87 0 -139 103q-16 42 -16 74q0 61 43 119q34 37 64 52q27 15 81 32l40 10v1h-6h-23q-142 0 -238 -83q-49 -52 -60 -88q-21 -52 -21 -69h-2v9q0 127 142 214q90 48 237 48q111 0 252 -29q30 -3 63 -3q169 0 224 68
q19 35 19 62q0 51 -58 70l-19 2h-4q-13 0 -24 -3l-1 1q19 32 60 32h2q24 0 51 -11q-14 27 -56 42q-20 5 -33 5q-49 0 -82 -40v1q46 88 143 88zM215 545q0 -57 38 -98v1q-24 48 -24 81v2q0 93 101 149q55 26 126 26h8q87 0 230 -39q47 -9 90 -9q54 0 108 15v1v0
q-27 -6 -60 -6q-93 0 -245 46q-57 15 -158 15h-1q-146 0 -202 -123q-11 -33 -11 -61z" />
    <glyph glyph-name="F" unicode="F" horiz-adv-x="1079" 
d="M751 1478l292 -662l-456 -212l-62 124q315 146 322 146l-234 540zM564 1377h2l49 -113v-3l-316 -139l60 -144l282 120h2q45 -96 45 -107l-277 -127l120 -271q-130 -65 -137 -65l-284 650q443 199 454 199zM114 771h5l251 -432h4l432 247h5q-69 -286 -73 -290l-439 -249
h-4l-256 434v2z" />
    <glyph glyph-name="G" unicode="G" horiz-adv-x="1479" 
d="M913 1434h1q0 -15 -13 -34q-9 -12 -32 -18l-13 -1q36 -41 54 -96q15 -39 15 -124v-7l-1 -52q42 44 54 51q37 28 65 43q100 53 216 53q99 0 160 -55q23 -25 27 -41q12 -28 12 -52v-2q0 -48 -52 -63q-8 -2 -18 -2q-31 0 -50 24q-5 11 -5 18q0 16 17 24l4 1q10 0 13 -13v-1
q0 -11 -12 -11q-10 1 -10 6q-1 0 -1 -4q0 -17 20 -23h5q22 0 38 26q4 9 4 17q0 29 -38 57q-50 33 -129 33q-48 0 -86 -14v0h19q73 0 102 -23q29 -24 35 -44q4 -11 4 -21v-6q0 -26 -26 -45q-11 -6 -15 -6v0v0q21 14 21 30v14q0 29 -15 42q-15 17 -45 26q-24 8 -55 8
q-53 0 -102 -16v0q20 2 40 2h4q50 0 84 -24q27 -23 27 -58q0 -11 -4 -23h-1v10q0 48 -33 62q-34 15 -78 15h-4q-71 0 -137 -46q-38 -29 -55 -81q-11 -36 -11 -69v-6q0 -78 55 -133q36 -31 68 -36v-1q-36 0 -79 33q-27 26 -33 37q-15 24 -15 27h-1v-1q7 -68 52 -146
q18 -30 62 -83l26 -27h-1q-27 17 -72 57q-43 43 -52 58q-16 21 -26 40q-7 15 -13 29h-1q-19 -72 -19 -154v-5q0 -123 31 -207q20 -55 49 -112q12 -24 12 -26q-19 19 -35 44q-36 56 -60 122q-32 94 -32 171v22v0q-3 -42 -3 -87q0 -304 140 -493q17 -21 41 -47h-1
q-21 12 -63 51q-49 53 -71 92q-36 58 -59 119q-19 47 -36 119q-13 64 -14 86q-4 43 -4 122v18q0 61 10 104q-46 -29 -77 -36h-1q17 9 44 35q32 36 40 54q-44 -40 -78 -58q-33 -21 -90 -43q-44 -18 -100 -31v1q84 35 152 83q57 42 90 92q22 34 33 60q13 34 13 38
q-90 -71 -207 -71q-142 0 -208 110q-6 12 -6 14q10 -14 28 -31q69 -60 150 -60q99 0 178 67l4 4q-34 -21 -72 -35q-51 -18 -85 -18h-10q-55 0 -102 34q-21 18 -21 33q3 16 13 16h1q11 0 15 -11v-2q-2 -11 -10 -11h-1q-6 0 -9 7v0v-2q0 -29 74 -52q18 -4 32 -4h8q48 0 109 25
q44 21 88 62q24 24 24 26l-2 3q-46 -43 -72 -57q-29 -18 -49 -25v1q32 17 86 61q30 28 30 30q-18 35 -40 65q-25 30 -53 53q-39 -16 -79 -16q-35 0 -92 16q-55 11 -91 11q-78 0 -100 -52q-5 -13 -5 -25v-5q0 -26 20 -48q16 -12 29 -12h4q16 0 24 24v3l-1 6v0q-6 -6 -12 -6
q-12 2 -12 11v2q0 10 13 12h1q14 0 18 -23v-6q0 -30 -35 -40l-17 -2q-44 0 -72 50q-11 23 -11 43v5q0 37 29 70q22 20 41 26q23 10 48 16l5 1v0l-14 1q-79 0 -130 -45q-23 -23 -26 -34q-9 -13 -15 -34q-3 -16 -4 -16h-1v3q0 70 78 116q47 26 123 26h7q59 0 136 -16l24 -1h19
v0q-92 43 -184 43h-2q-157 0 -255 -118q-43 -54 -55 -109q-3 -16 -3 -40q0 -90 46 -153h-1q-29 20 -44 69q-12 40 -12 78q0 115 88 204l18 17v0q-78 -42 -119 -130q-23 -51 -23 -100v-7q0 -95 80 -171q23 -19 33 -23v-1q-26 5 -56 28q-86 67 -86 176q0 70 33 147
q57 120 186 172q80 31 157 31q117 0 250 -80l29 -18q12 4 26 18q13 19 13 37q0 29 -33 38l-10 1l-14 -2v1q0 4 12 12q11 5 21 5q12 0 28 -6v0q-17 25 -49 25q-26 0 -43 -21v0q16 33 46 43q14 5 27 5h6q49 0 68 -42q10 -24 10 -53v-2q0 -67 -38 -101l-4 -5q40 -35 59 -60
q25 -31 25 -34v0q11 18 21 55q14 50 14 101v7q0 67 -22 108q-9 16 -28 35q-25 20 -55 20h-14q-20 -1 -55 -29v0q38 47 50 47q15 7 36 7q18 0 76 -13q10 -1 18 -1q33 0 52 27zM526 677v-4q0 -17 13 -30v0q-8 16 -8 28q0 28 28 47q20 13 51 13q29 0 79 -14q17 -3 30 -3
q18 0 37 5v1v0q-8 -2 -16 -2h-6q-29 0 -79 15q-20 5 -50 5h-10q-38 0 -59 -30q-10 -15 -10 -31zM857 394v-1v0v1z" />
    <glyph glyph-name="H" unicode="H" horiz-adv-x="1579" 
 />
    <glyph glyph-name="I" unicode="I" horiz-adv-x="657" 
d="M444 1420h1q0 -14 -13 -33q-10 -13 -31 -18l-13 -2q38 -43 53 -94q15 -37 15 -125v-4q0 -80 -6 -118l-26 -233q-9 -22 -16 -53q-12 -61 -12 -122v-12q0 -121 33 -206q17 -46 41 -96q14 -27 17 -33q-14 13 -27 31q-43 66 -62 119q-37 96 -37 190l1 11v2h-1q-3 -52 -3 -86
q0 -255 102 -430q20 -34 52 -74l24 -27v0q-21 11 -66 54q-48 53 -73 97q-34 57 -63 139q-13 38 -25 90q-12 64 -12 84q-2 0 -5 122q0 116 32 176l9 19v1v0q-4 -9 -32 -38q-91 -82 -256 -122v1q81 34 146 78q73 55 106 115q14 24 29 66q66 210 66 323v5q0 73 -26 117
q-34 51 -76 51h-3q-35 0 -72 -32v1q38 45 48 45q16 8 37 8q18 0 68 -12q12 -2 24 -2q34 0 52 27zM361 626v-1h1v1h-1z" />
    <glyph glyph-name="J" unicode="J" horiz-adv-x="657" 
 />
    <glyph glyph-name="K" unicode="K" horiz-adv-x="1382" 
 />
    <glyph glyph-name="L" unicode="L" horiz-adv-x="1128" 
d="M763 1429l292 -662l-456 -212l-62 124q315 146 322 146l-234 540zM576 1328h2l49 -113v-3l-316 -139l60 -144l282 120h2q45 -96 45 -107l-277 -127l120 -271q-130 -65 -137 -65l-284 650q443 199 454 199zM126 722h5l251 -432h4l432 247h5q-69 -286 -73 -290l-439 -249
h-4l-256 434v2z" />
    <glyph glyph-name="M" unicode="M" horiz-adv-x="1798" 
d="M113 685h9q4 0 4 -8v-5h7v-1v-2v-1h-7v-20q0 -4 6 -4q1 0 1 -1v-2v-1h-9q-4 0 -5 7v30q0 5 -5 5q-2 0 -2 1v1zM16 672h8q4 0 9 -16l3 -5l8 17q0 2 -4 3v0l1 1h7l1 -1v0q-12 -30 -14 -32q-2 2 -12 25q-2 5 -5 5h-2l-1 1v1zM52 672h7q6 0 6 -8v-17q0 -5 3 -5h3l1 -1v0
l-1 -1h-9q-4 0 -4 7v17q0 5 -7 5v2zM80 672h9l1 -1v-1l-1 -1h-8q-5 0 -5 -4q0 -3 12 -9q4 -3 4 -8q0 -6 -8 -8h-7l-1 1v0l1 1h4q6 0 6 5q0 3 -10 7q-7 5 -7 10q0 7 10 8zM95 672h8q5 0 5 -10v-16q1 -4 3 -4h3l1 -1v0l-1 -1h-9q-3 0 -4 6v18q0 5 -5 5q-1 0 -1 1v1v1zM166 650
h15q9 0 9 -13v-51q0 -13 10 -16q3 0 3 -1v-2l-1 -1h-17q-7 0 -8 9v1q-9 -10 -17 -10h-2q-24 0 -29 22l-1 5v4q0 13 13 23q7 5 16 5q12 0 20 -9v22q0 9 -6 9h-5l-1 1v1zM248 631h1v0q0 -8 -5 -11l-2 -1v0q15 -8 15 -24v-1q0 -19 -20 -27q-3 -1 -8 -1h-1q-18 0 -26 19
q-2 4 -2 9v1q0 19 21 27l14 2q13 4 13 7zM93 625h3q15 0 20 -17q1 -1 1 -6v-22q0 -10 8 -10h5v-1v-2v-1h-17q-8 2 -8 14v24q0 12 -14 13h-1q-14 -1 -17 -10l-1 -2v-38v-1h-11l-1 1v45q-1 7 -7 7h-5l-1 1v4l1 1h15q6 0 9 -7v-1q10 8 21 8zM300 625h3q15 0 20 -16l1 -5v-22
q0 -12 7 -12h5l1 -1v-2l-1 -1h-15q-9 2 -9 12v24q0 10 -8 14q-4 1 -7 1q-12 0 -17 -10l-1 -3v-37l-1 -1h-10l-1 1v43q0 9 -6 9h-6l-1 1v4l1 1h15q5 0 9 -7q10 7 21 7zM16 625h14q6 0 9 -7l1 -6v-32q0 -10 7 -10h5l1 -1v-2l-1 -1h-16q-8 0 -9 15v31q0 7 -6 7h-5l-1 1v4z
M358 625h2q17 0 24 -14q1 -5 1 -10q0 -16 -14 -22q-4 -1 -10 -2l-10 1v0q7 -8 16 -8h9l1 -1v-2l-1 -1h-17q-13 0 -21 13q-5 10 -5 23q0 16 19 22zM405 625h19l1 -1v-4l-1 -1h-17q-6 0 -8 -4v-2q0 -6 19 -15q11 -7 11 -16q0 -12 -16 -16h-13l-1 1v2l1 1h8q11 1 11 8v0
q0 8 -17 14q-13 9 -13 16v4q3 13 16 13zM431 625h15q8 0 9 -12v-33q0 -10 9 -10h4l1 -1v-2l-1 -1h-17q-8 2 -8 12v31q0 10 -6 10h-6v1v4v1zM484 625h15q12 0 17 -13v-7q18 3 18 9h1v-2v-2q0 -9 -19 -11v-21q0 -9 9 -9v-2l-1 -1h-11q-6 0 -8 10q-10 -9 -19 -9h-1
q-12 0 -15 11v2q0 15 30 22l5 1v4q0 12 -10 12h-12v1v4zM347 601q0 -13 10 -17l2 -1q8 0 12 12q2 3 2 7q0 12 -10 17h-3h-1q-9 0 -12 -16v-2zM142 598v-4q0 -16 12 -20l6 -1h2q9 0 15 12v21q-5 12 -17 12t-17 -14zM214 595v-1q0 -14 10 -20q2 -1 5 -1q10 0 14 16v4v3
q-3 20 -15 20q-8 0 -13 -12q-1 -4 -1 -9zM483 583v-2q1 -7 8 -7q5 0 14 8v15q-22 -4 -22 -14zM1615 552h1q34 0 82 -26q54 -32 54 -80q0 -57 -72 -103q-15 -8 -16 -8v0q22 -14 56 -45q65 -62 65 -109q0 -54 -59 -101q-53 -39 -107 -39q-63 0 -120 40q-54 43 -54 96v5
q0 55 68 104q18 13 38 23q7 3 7 4q-14 8 -49 43q-22 25 -29 40q-9 21 -9 35q0 68 73 104q41 17 71 17zM50 547h165q51 0 93 -31q20 -18 25 -28q24 -37 24 -71q0 -52 -52 -105q-28 -24 -57 -42q-50 -30 -102 -53q-8 -4 -23 -19q-23 -26 -23 -53v-3q0 -38 45 -61q19 -8 36 -8
h86l1 -1v-28l-1 -1h-82h-16q-37 0 -76 17q-16 8 -33 23q-29 29 -35 41q-9 13 -9 44v22q0 26 24 62q8 12 24 29q26 24 52 39q55 27 87 46q23 14 44 32q17 17 19 27q6 14 6 23q0 30 -35 46q-18 6 -36 6h-151v1v45v1zM620 530h4q84 0 155 -56q28 -24 39 -39q15 -21 23 -36
q28 -54 28 -108v-9q0 -79 -53 -148q-26 -30 -43 -41q-68 -52 -152 -52q-99 0 -175 72q-72 75 -72 173q0 95 68 168q26 25 45 37q63 39 133 39zM1143 530h3q82 0 152 -53q10 -8 27 -25q29 -32 38 -53q28 -53 28 -110v-6q0 -82 -56 -153q-23 -25 -35 -34q-71 -55 -157 -55
q-94 0 -168 66q-25 24 -34 38q-45 65 -45 141q0 95 69 168q29 28 42 35q62 41 136 41zM1560 462v-4q0 -26 31 -55l40 -42q44 52 44 88v5q0 23 -23 45q-17 13 -38 13q-27 0 -44 -21q-10 -15 -10 -29zM491 289v-1q0 -86 49 -146q38 -42 82 -42q55 0 97 62q34 56 34 125v4
q0 72 -39 131q-40 54 -92 54t-93 -56q-38 -58 -38 -131zM1014 289v-2q0 -76 41 -135q40 -52 90 -52q55 0 97 62q34 56 34 125v2q0 78 -42 137q-40 50 -89 50q-56 0 -97 -61q-34 -57 -34 -126zM1530 178q0 -44 34 -76q23 -19 46 -19q60 0 81 63q2 7 2 14v1q0 29 -29 60
q-1 0 -53 51l-18 17v0q-31 -32 -42 -50q-21 -31 -21 -61z" />
    <glyph glyph-name="N" unicode="N" horiz-adv-x="1554" 
d="M1099 1406q100 0 206 -124q111 -166 111 -415v-18q0 -246 -110 -470q-115 -206 -356 -301q-140 -52 -288 -52h-3q-350 0 -506 279l-8 19q21 -31 76 -82q104 -94 261 -129q42 -7 82 -7h17q224 0 414 158l12 12h-1q-57 -38 -132 -70q-145 -57 -256 -57q-150 0 -263 88
q-40 39 -40 65v7q0 30 29 39h5q35 -8 35 -30q-6 -28 -25 -28h-5q-8 0 -20 15v-1q0 -74 186 -128q48 -8 79 -8q127 0 277 64q79 35 190 132q88 88 114 129l15 20h-1q-86 -96 -136 -134q-120 -98 -217 -130q98 58 213 154q90 86 109 116q65 84 89 167q45 139 45 291
q0 160 -49 262q-20 34 -55 72q-62 65 -151 65h-29l-8 -1v1q44 30 94 30z" />
    <glyph glyph-name="O" unicode="O" horiz-adv-x="1614" 
d="M1003 1426h14q209 0 340 -120q43 -44 56 -83q25 -64 25 -110v-10q0 -97 -104 -131q-24 -6 -43 -6h-4q-72 0 -108 57q-8 17 -8 30v8q0 31 37 47l9 1q19 0 25 -27v-4q0 -19 -23 -23q-22 4 -22 15h-1l-3 -11q0 -16 16 -33q19 -16 38 -16q43 0 77 49q13 21 13 41
q0 78 -106 141q-101 55 -253 55q-105 0 -184 -29v-1h58q156 0 222 -66q40 -37 50 -66q15 -35 15 -62q0 -68 -64 -109q-15 -7 -26 -8v1q43 32 43 52q4 13 4 44q0 62 -37 93q-41 41 -126 60q-38 7 -76 7h-19q-99 0 -209 -33v-1h2q46 4 88 5q121 0 195 -61q48 -47 48 -117
q0 -24 -8 -46h-2v22q0 102 -71 131q-28 15 -76 25q-67 9 -96 9q-147 0 -286 -92q-92 -64 -126 -170q-28 -83 -28 -163v-9q0 -173 122 -292q74 -60 141 -72v-2h-2q-72 0 -159 65q-60 54 -76 82q-26 39 -36 61h-1v-2q7 -89 65 -224q33 -70 87 -149q46 -67 128 -156l21 -20h-1
q-61 37 -149 117q-66 61 -105 110q-50 66 -74 114l-131 299l41 295q80 71 80 82q42 60 128 149q134 122 275 181q187 76 380 76z" />
    <glyph glyph-name="P" unicode="P" horiz-adv-x="1120" 
 />
    <glyph glyph-name="Q" unicode="Q" horiz-adv-x="1614" 
 />
    <glyph glyph-name="R" unicode="R" horiz-adv-x="1283" 
d="M788 1234h1q0 -13 -12 -29q-8 -11 -27 -16l-11 -1q31 -35 46 -82q13 -34 13 -107v-6v-45q35 38 46 44q32 24 56 37q86 45 186 45q85 0 138 -47q19 -21 23 -35q10 -24 10 -45v-2q0 -41 -44 -54l-16 -2q-27 0 -43 21q-5 10 -5 16q0 13 15 20l3 1q9 0 11 -11v-1q0 -9 -9 -9
q-9 1 -9 5q-1 0 -1 -3q0 -15 17 -20l4 -1q20 0 33 23q3 7 3 14q0 25 -32 50q-43 28 -111 28q-41 0 -74 -12v0h16q63 0 88 -20t30 -38q3 -9 3 -18v-5q0 -22 -22 -39q-9 -5 -13 -5v0v1q18 12 18 25l1 12q0 25 -13 36q-14 15 -39 23q-21 6 -48 6q-45 0 -88 -13v-1q18 2 35 2h4
q43 0 72 -20q23 -20 23 -50q0 -10 -3 -20h-1v9q0 41 -29 53q-29 13 -67 13h-3q-62 0 -119 -40q-32 -24 -46 -69q-10 -31 -10 -60v-5q0 -67 47 -115q31 -26 59 -31v-1q-31 0 -68 29q-23 22 -28 32q-14 20 -14 23v0v-1q6 -58 45 -125q15 -26 53 -72l22 -23h-1q-23 15 -62 50
q-36 36 -45 49q-13 18 -22 34q-6 13 -11 26h-1q-16 -63 -16 -133v-4q0 -106 26 -179q18 -47 42 -96q11 -20 11 -22q-16 16 -30 37q-31 48 -52 106q-27 81 -27 147v18h-1q-2 -36 -2 -74q0 -262 121 -425q14 -18 34 -40v0q-18 10 -54 44q-42 45 -62 79q-30 50 -50 103
q-17 40 -31 102q-11 55 -12 74q-3 37 -3 105v16q0 52 8 89q-39 -25 -67 -31v0q14 8 38 30q27 31 34 47q-38 -35 -67 -51q-29 -17 -78 -37q-38 -14 -86 -26v1q73 30 131 71q50 36 78 79q19 30 28 52q11 29 11 32q-77 -61 -177 -61q-123 0 -180 95q-5 11 -5 12q9 -11 24 -26
q60 -52 130 -52q84 0 152 58l4 3q-29 -18 -62 -30q-44 -15 -74 -15h-8q-47 0 -88 29q-18 15 -18 28q3 14 11 14h2q9 0 12 -9v-2q-2 -10 -9 -10v0q-5 0 -8 6v0v-2q0 -24 64 -44q15 -3 27 -3h7q42 0 94 21q38 18 76 53q20 21 20 23l-1 2q-40 -37 -62 -49q-25 -15 -43 -21v0
q28 15 75 53q25 24 25 26q-15 30 -34 56q-22 26 -46 45q-33 -13 -68 -13q-30 0 -79 13q-47 10 -78 10q-68 0 -86 -45q-5 -11 -5 -21v-5q0 -22 18 -41q13 -10 25 -10h3q14 0 21 20v3l-1 5v0q-5 -5 -11 -5q-10 1 -10 10v1q0 9 12 10v0q12 0 16 -19v-6q0 -25 -31 -34l-14 -1
q-38 0 -62 42q-10 20 -10 37v5q0 32 26 60q19 17 35 23q19 8 41 13l4 1v0l-11 1q-68 0 -112 -39q-20 -20 -23 -29q-7 -11 -13 -30q-3 -13 -4 -13v0v2q0 61 67 101q41 22 106 22h5q52 0 118 -14l21 -1h16v0q-80 37 -158 37h-2q-135 0 -220 -101q-36 -47 -47 -94
q-3 -14 -3 -35q0 -77 40 -131h-1q-25 16 -38 59q-10 34 -10 67q0 99 76 176l15 14v0q-67 -36 -103 -112q-19 -43 -19 -86v-6q0 -81 69 -147q20 -16 29 -20v-1q-23 5 -49 24q-74 58 -74 152q0 60 29 126q48 104 159 148q69 27 135 27q101 0 216 -69l25 -15q10 3 22 15
q11 16 11 33q0 24 -28 32l-9 1l-12 -2v1q0 3 10 10q10 5 19 5q10 0 24 -6v1q-15 21 -43 21q-22 0 -37 -19v1q14 28 40 37q12 4 23 4h6q41 0 58 -36q8 -21 8 -45v-2q0 -58 -32 -87l-4 -4q35 -31 51 -52q22 -27 22 -29v0q9 15 18 47q12 43 12 87v6q0 57 -19 93q-8 13 -24 30
q-21 17 -48 17h-11q-18 -1 -48 -25v0q33 40 43 40q13 6 31 6q15 0 66 -11q8 -1 15 -1q28 0 45 24z" />
    <glyph glyph-name="S" unicode="S" horiz-adv-x="1085" 
d="M485 1190q147 0 316 -107q36 -21 79 -54q170 -137 170 -316q0 -188 -182 -267q-23 -8 -29 -9q19 12 44 34q38 39 49 62q13 20 26 54q21 68 21 127q0 87 -57 172q-48 87 -175 157q-122 65 -239 65h-13q-158 0 -270 -110q-43 -46 -60 -79q-15 -27 -24 -54q-12 -33 -12 -73
q0 -106 54 -179v-1v0q-36 25 -55 89q-11 46 -11 83q0 137 104 242l21 19v0q-28 -11 -71 -51q-43 -46 -58 -77q-39 -71 -39 -143v-9q0 -112 96 -202q23 -19 37 -27v-1q-34 8 -72 38q-95 80 -95 204q0 89 44 183q67 132 210 192q95 38 191 38z" />
    <glyph glyph-name="T" unicode="T" horiz-adv-x="1350" 
 />
    <glyph glyph-name="U" unicode="U" horiz-adv-x="1501" 
d="M913 1434h1q0 -15 -13 -34q-9 -12 -32 -18l-13 -1q36 -41 54 -96q15 -39 15 -124v-7l-1 -52q42 44 54 51q37 28 65 43q100 53 216 53q99 0 160 -55q23 -25 27 -41q12 -28 12 -52v-2q0 -48 -52 -63q-8 -2 -18 -2q-31 0 -50 24q-5 11 -5 18q0 16 17 24l4 1q10 0 13 -13v-1
q0 -11 -12 -11q-10 1 -10 6q-1 0 -1 -4q0 -17 20 -23h5q22 0 38 26q4 9 4 17q0 29 -38 57q-50 33 -129 33q-48 0 -86 -14v0h19q73 0 102 -23q29 -24 35 -44q4 -11 4 -21v-6q0 -26 -26 -45q-11 -6 -15 -6v0v0q21 14 21 30v14q0 29 -15 42q-15 17 -45 26q-24 8 -55 8
q-53 0 -102 -16v0q20 2 40 2h4q50 0 84 -24q27 -23 27 -58q0 -11 -4 -23h-1v10q0 48 -33 62q-34 15 -78 15h-4q-71 0 -137 -46q-38 -29 -55 -81q-11 -36 -11 -69v-6q0 -78 55 -133q36 -31 68 -36v-1q-36 0 -79 33q-27 26 -33 37q-15 24 -15 27h-1v-1q7 -68 52 -146
q18 -30 62 -83l26 -27h-1q-27 17 -72 57q-43 43 -52 58q-16 21 -26 40q-7 15 -13 29h-1q-19 -72 -19 -154v-5q0 -123 31 -207q20 -55 49 -112q12 -24 12 -26q-19 19 -35 44q-36 56 -60 122q-32 94 -32 171v22v0q-3 -42 -3 -87q0 -304 140 -493q17 -21 41 -47h-1
q-21 12 -63 51q-49 53 -71 92q-36 58 -59 119q-19 47 -36 119q-13 64 -14 86q-4 43 -4 122v18q0 61 10 104q-46 -29 -77 -36h-1q17 9 44 35q32 36 40 54q-44 -40 -78 -58q-33 -21 -90 -43q-44 -18 -100 -31v1q84 35 152 83q57 42 90 92q22 34 33 60q13 34 13 38
q-90 -71 -207 -71q-142 0 -208 110q-6 12 -6 14q10 -14 28 -31q69 -60 150 -60q99 0 178 67l4 4q-34 -21 -72 -35q-51 -18 -85 -18h-10q-55 0 -102 34q-21 18 -21 33q3 16 13 16h1q11 0 15 -11v-2q-2 -11 -10 -11h-1q-6 0 -9 7v0v-2q0 -29 74 -52q18 -4 32 -4h8q48 0 109 25
q44 21 88 62q24 24 24 26l-2 3q-46 -43 -72 -57q-29 -18 -49 -25v1q32 17 86 61q30 28 30 30q-18 35 -40 65q-25 30 -53 53q-39 -16 -79 -16q-35 0 -92 16q-55 11 -91 11q-78 0 -100 -52q-5 -13 -5 -25v-5q0 -26 20 -48q16 -12 29 -12h4q16 0 24 24v3l-1 6v0q-6 -6 -12 -6
q-12 2 -12 11v2q0 10 13 12h1q14 0 18 -23v-6q0 -30 -35 -40l-17 -2q-44 0 -72 50q-11 23 -11 43v5q0 37 29 70q22 20 41 26q23 10 48 16l5 1v0l-14 1q-79 0 -130 -45q-23 -23 -26 -34q-9 -13 -15 -34q-3 -16 -4 -16h-1v3q0 70 78 116q47 26 123 26h7q59 0 136 -16l24 -1h19
v0q-92 43 -184 43h-2q-157 0 -255 -118q-43 -54 -55 -109q-3 -16 -3 -40q0 -90 46 -153h-1q-29 20 -44 69q-12 40 -12 78q0 115 88 204l18 17v0q-78 -42 -119 -130q-23 -51 -23 -100v-7q0 -95 80 -171q23 -19 33 -23v-1q-26 5 -56 28q-86 67 -86 176q0 70 33 147
q57 120 186 172q80 31 157 31q117 0 250 -80l29 -18q12 4 26 18q13 19 13 37q0 29 -33 38l-10 1l-14 -2v1q0 4 12 12q11 5 21 5q12 0 28 -6v0q-17 25 -49 25q-26 0 -43 -21v0q16 33 46 43q14 5 27 5h6q49 0 68 -42q10 -24 10 -53v-2q0 -67 -38 -101l-4 -5q40 -35 59 -60
q25 -31 25 -34v0q11 18 21 55q14 50 14 101v7q0 67 -22 108q-9 16 -28 35q-25 20 -55 20h-14q-20 -1 -55 -29v0q38 47 50 47q15 7 36 7q18 0 76 -13q10 -1 18 -1q33 0 52 27z" />
    <glyph glyph-name="V" unicode="V" horiz-adv-x="1456" 
 />
    <glyph glyph-name="W" unicode="W" horiz-adv-x="2030" 
d="M128 870h10q4 -2 4 -8v-6h6l1 -1v-2l-1 -1h-6v-21q0 -5 6 -5q1 0 1 -1v-2l-1 -1h-8q-5 0 -5 7v33q0 5 -8 5v2zM26 856h9q3 0 12 -23v0l8 19v2h-3l-1 1l1 1h8v-1h1q-13 -31 -15 -33h-1q-2 3 -12 26q-1 4 -6 4q-2 0 -2 1v2zM64 856h8q5 0 5 -11v-16q0 -5 7 -5l1 -1l-1 -1
h-9q-5 1 -5 7v17q0 6 -5 6q-2 0 -2 1v2zM92 856h11l1 -1v-2l-1 -1h-9q-4 0 -5 -2v-1q0 -4 14 -10q3 -4 3 -7v-2q0 -6 -9 -8h-7l-1 1l1 1h4q5 0 6 5q0 4 -13 10q-4 4 -4 9q0 6 9 8zM109 856h8q5 0 6 -7v-19q0 -6 7 -6v-1l-1 -1h-9q-5 0 -5 7v18q0 5 -5 5q-2 0 -2 1v2z
M183 833h16q9 0 9 -11v-54q0 -17 12 -19q2 0 2 -1v-2l-1 -1h-15q-11 0 -11 10q-9 -10 -20 -10q-20 0 -28 15q-3 6 -3 12v4q0 22 24 30l7 1q12 0 20 -9v21q0 11 -8 11h-4l-1 1v1zM269 813h1v0q0 -10 -6 -12v-1q14 -9 14 -24v-3q0 -19 -22 -28l-8 -1q-18 0 -27 21q-2 4 -2 8v3
q0 20 23 28q22 0 27 9zM108 807h2q15 0 21 -16l1 -8v-23q0 -11 8 -11h5l1 -1v-2l-1 -1h-16q-8 0 -10 12v25q0 12 -9 15q-2 1 -5 1h-3q-17 -3 -17 -13v-39l-1 -1h-11l-1 1v46q0 9 -9 9h-3l-1 1v4l1 1h15q7 0 10 -8v0q9 8 23 8zM326 807h1q17 0 22 -18v-4v-23q0 -13 8 -13h5
l1 -1v-2l-1 -1h-16q-10 0 -10 16v23q-1 14 -13 14h-3q-12 0 -17 -9q-1 -2 -1 -6v-37l-1 -1h-11l-1 1v47q-1 8 -7 8h-5l-1 1v4l1 1h16q5 0 9 -8q10 8 24 8zM26 807h15q9 0 10 -13v-37q1 -8 8 -8h5l1 -1v-2l-1 -1h-15q-7 0 -10 7l-1 6v32q0 11 -8 11h-4l-1 1v4zM385 807h2
q19 0 26 -17l1 -8v-2q-3 -23 -23 -23h-4l-9 1q6 -9 17 -9h9l1 -1v-2l-1 -1h-15q-30 0 -30 35v4q0 15 20 22q2 1 6 1zM435 807h19l1 -1v-4l-1 -1h-15q-11 0 -11 -7t22 -16q9 -8 9 -14v-6q0 -6 -12 -12l-8 -1h-10l-1 1v2l1 1h8q12 1 12 7v2q0 7 -16 14q-16 8 -16 20
q4 14 15 14zM462 807h15q9 0 10 -13v-37q1 -8 8 -8h5l1 -1v-2l-1 -1h-15q-7 0 -10 7l-1 6v32q0 11 -9 11h-3l-1 1v4zM517 807h16q12 0 17 -14l1 -6v-1h1q18 3 18 9h1v-3v0q0 -9 -15 -12q-5 0 -5 -1v-20q0 -10 5 -10l4 -1v-2l-1 -1h-9q-7 0 -10 7q0 3 -1 3q-9 -10 -21 -10
q-15 2 -15 14q0 16 30 23l6 1v2q0 16 -9 16h-6q-8 0 -8 1v4zM373 782v0q0 -15 12 -19l1 -1q12 0 14 20q-2 19 -14 19q-9 0 -12 -15zM158 776q0 -24 20 -24q12 0 17 14v20q-4 14 -18 14q-16 0 -18 -21zM234 775q0 -16 11 -23h4q12 0 16 19v5q0 14 -12 20l-4 1q-12 0 -15 -19
v-3zM516 762v0q2 -9 8 -9v0q6 0 15 9v15v0q-23 -3 -23 -15zM235 725q29 0 65 -13q45 -19 70 -67q14 -30 14 -53v-8q0 -48 -52 -104q-34 -28 -57 -42q-50 -32 -111 -59q-50 -33 -50 -77q0 -46 55 -69q16 -6 28 -6h93l1 -1v-29l-1 -1h-80h-25q-34 0 -75 17q-19 8 -41 28
q-35 37 -37 47q-7 9 -7 60q0 36 37 82q27 29 41 37q25 18 49 30q62 29 109 65q33 27 33 60q0 37 -50 51q-12 3 -24 3h-158l-1 1v46l1 1h152zM660 707h2q109 0 190 -82q69 -77 69 -175q0 -107 -83 -187q-41 -35 -74 -48q-49 -21 -101 -21h-2q-110 0 -190 82q-27 30 -43 61
q-26 56 -26 109v9q0 87 62 162q31 33 46 42q69 48 150 48zM1209 707h2q103 0 183 -75q76 -79 76 -181t-76 -181q-80 -76 -183 -76h-3q-103 0 -183 76q-75 78 -75 181q0 102 76 181q80 75 183 75zM1758 703h4q79 0 161 -58q17 -13 36 -33q36 -41 49 -83q9 -27 9 -85
q0 -132 -38 -228q-30 -74 -105 -110q-27 -13 -51 -20q-43 -12 -66 -12h-177l-1 1v35l1 1h118q30 2 72 23q49 28 73 73h-1q-51 -14 -105 -14q-160 0 -218 135q-22 53 -22 118q0 69 22 123q42 78 129 114q51 20 110 20zM525 458v-10q0 -72 39 -134q44 -58 96 -58h5q43 0 83 43
q52 64 52 155q0 81 -44 144q-42 53 -94 53q-58 0 -102 -66q-35 -60 -35 -127zM1073 453q0 -85 47 -148q19 -22 33 -31q29 -18 54 -18h6q50 0 92 55q43 62 43 142q0 72 -35 132q-26 43 -71 60q-17 6 -31 6q-60 0 -105 -69q-33 -59 -33 -129zM1624 452v-7q0 -83 47 -146
q38 -47 84 -47q53 0 94 59q37 61 37 135v6q0 87 -50 151q-38 42 -78 42h-6q-46 0 -87 -53q-41 -63 -41 -140z" />
    <glyph glyph-name="X" unicode="X" horiz-adv-x="1350" 
 />
    <glyph glyph-name="Y" unicode="Y" horiz-adv-x="1233" 
 />
    <glyph glyph-name="Z" unicode="Z" horiz-adv-x="1124" 
d="M796 1432l292 -662l-456 -212l-62 124q315 146 322 146l-234 540zM609 1331h2l49 -113v-3l-316 -139l60 -144l282 120h2q45 -96 45 -107l-277 -127l120 -271q-130 -65 -137 -65l-284 650q443 199 454 199zM159 725h5l251 -432h4l432 247h5q-69 -286 -73 -290l-439 -249
h-4l-256 434v2z" />
    <glyph glyph-name="bracketleft" unicode="[" horiz-adv-x="758" 
 />
    <glyph glyph-name="backslash" unicode="\" horiz-adv-x="569" 
 />
    <glyph glyph-name="bracketright" unicode="]" horiz-adv-x="758" 
 />
    <glyph glyph-name="asciicircum" unicode="^" 
 />
    <glyph glyph-name="underscore" unicode="_" horiz-adv-x="1024" 
d="M0 -100h1024v-60h-1024v60z" />
    <glyph glyph-name="grave" unicode="`" horiz-adv-x="1024" 
d="M673 1079h-69l-330 202q-31 20 -46.5 40t-15.5 42q0 31 20.5 51t53.5 20q20 0 40.5 -12t55.5 -47z" />
    <glyph glyph-name="a" unicode="a" horiz-adv-x="922" 
d="M210 912h234q50 0 117 -27q98 -44 139 -137q11 -27 17 -53q9 -43 9 -67l1 -26q163 34 192 42q61 22 81 63q10 21 10 38v3h1q12 -29 12 -57q0 -73 -79 -127q-24 -16 -53 -26q-23 -7 -63 -13q-54 -10 -101 -18v-28v-288q0 -44 15 -87q8 -19 24 -36q22 -18 45 -18h46l1 -1
v-52l-1 -1h-158q-92 0 -128 99q-7 15 -14 48l-2 12v0q-152 -153 -311 -153q-58 0 -117 22q-20 10 -41 25q-77 62 -77 148v4q0 63 42 132q35 53 100 97q41 28 89 51q57 28 139 53q64 18 94 18q34 5 78 13v71q0 47 -22 108q-8 17 -22 38q-18 25 -50 35q-6 3 -52 4l-195 6l-1 1
v83zM209 249v-1q0 -50 32 -97q32 -39 86 -39v0q43 0 90 26l134 100v242q-84 -16 -149 -38q-82 -27 -113 -52q-33 -26 -53 -55q-27 -42 -27 -86z" />
    <glyph glyph-name="b" unicode="b" horiz-adv-x="995" 
d="M-119 1226q201 -16 239 -16q44 -8 70 -30q28 -22 43 -75l4 -33v-72v-264q96 87 120 92q91 41 189 41q165 0 297 -128q129 -132 129 -324q0 -166 -95 -290q-117 -136 -360 -136h-4q-143 0 -276 152v-39q0 -45 -41 -83q-37 -30 -96 -30h-238l-2 2v48l2 2h38q37 0 88 47
q68 72 68 218v727q0 124 -79 146q-15 3 -98 8l-1 3l1 33l1 1h1zM237 271q18 -46 73 -106q78 -76 173 -76q190 0 253 161q30 77 30 189q0 154 -86 253q-74 77 -192 77q-158 0 -251 -173v-325z" />
    <glyph glyph-name="c" unicode="c" horiz-adv-x="905" 
d="M534 900q198 0 302 -145v-115h-28q-82 159 -231 159q-230 0 -274 -289v-72q0 -317 245 -317h43q157 0 217 159h28v-115q-129 -159 -302 -159q-447 42 -447 389v72q0 311 346 433h101z" />
    <glyph glyph-name="d" unicode="d" horiz-adv-x="1040" 
d="M829 1241q39 0 86 -41q38 -48 38 -133v-769q0 -187 126 -248q22 -7 35 -7h31l4 -3v-45l-4 -3h-237q-107 0 -134 93l-2 13v45h-3q-46 -56 -96 -91q-90 -60 -175 -60h-9q-212 0 -328 106q-124 125 -124 315v16q0 207 169 348q119 91 242 91h33q101 0 204 -58l87 -73v290
q0 176 -114 176h-73l-3 3v30l3 3h144zM244 453v-30q0 -226 141 -302q58 -30 132 -30h17q142 0 238 183v318q-10 37 -76 107q-80 70 -165 70h-20q-178 0 -247 -191q-20 -68 -20 -125z" />
    <glyph glyph-name="e" unicode="e" horiz-adv-x="909" 
d="M453 931h15q222 0 354 -169q53 -84 53 -213q0 -208 -154 -316q-91 -58 -227 -58q-81 0 -163 21v-1q44 -84 165 -128q39 -13 64 -13h182l3 -3v-49l-3 -3h-274q-107 0 -245 79q-55 40 -86 89q-81 146 -81 368v33q0 135 81 216q30 35 61 56q130 91 255 91zM262 553
q0 -168 115 -261q49 -29 89 -29q110 0 178 140q30 73 30 153q0 153 -103 249q-51 40 -103 40q-106 0 -175 -136q-31 -74 -31 -156z" />
    <glyph glyph-name="f" unicode="f" horiz-adv-x="559" 
d="M266 1210h233l2 -2v-70l-2 -2h-97q-55 0 -82 -68q-10 -31 -10 -92v-123h145l2 -2v-84l-2 -2h-145v-587q0 -130 -103 -174q-31 -11 -55 -11h-214l-2 2v91l2 2h95q84 0 100 104l1 23v549h-196l-2 1v85l2 2h169l27 1v177q0 58 34 123q38 57 98 57z" />
    <glyph glyph-name="g" unicode="g" horiz-adv-x="899" 
d="M740 1025h6l3 -33q0 -119 -93 -162h-5q220 -147 220 -394l-5 -61q5 -24 5 -61v-439q0 -173 -114 -209h-250l-6 6v41l6 6h92q78 0 92 117v239h-2q-119 -84 -250 -84q-229 0 -370 214q-63 109 -63 223v19q0 237 220 383q104 56 218 56l38 -3q258 58 258 142zM215 436
q0 -191 128 -303q54 -36 101 -36q133 0 207 197q21 81 21 145q0 201 -136 308q-46 31 -95 31q-127 0 -204 -195q-22 -90 -22 -147z" />
    <glyph glyph-name="h" unicode="h" horiz-adv-x="1104" 
d="M-58 1219h229q97 0 139 -125l6 -52v-254q147 119 239 119h33q201 0 297 -212q24 -68 24 -143v-334q0 -135 68 -166l21 -3h104l6 -6v-43l-6 -6h-232q-92 0 -131 104q-15 66 -15 108v361q0 171 -175 212l-50 3q-63 0 -156 -113q33 -20 116 -41l3 -3v-3q0 -25 -107 -72
l-39 -24v-346q0 -131 -113 -174l-41 -6h-220l-6 6v73l6 5h86q69 0 92 70q9 19 9 47v500l3 3l-3 3v317q-12 114 -110 114h-77l-6 5v70z" />
    <glyph glyph-name="i" unicode="i" horiz-adv-x="514" 
d="M-28 886h223q72 0 121 -75q26 -51 26 -124v-483q0 -128 79 -149l25 -3h90l3 -2v-47l-3 -3h-229q-96 0 -131 102q-17 50 -17 96v482q0 88 -68 119q-19 5 -33 5h-86l-3 2v78z" />
    <glyph glyph-name="j" unicode="j" horiz-adv-x="510" 
d="M48 879h448l4 -4v-931q0 -217 -166 -264q-25 -6 -46 -6h-280l-4 4v125l4 4h83q119 0 208 54q33 45 33 120v774h-324l-4 4l38 116zM708 937l-4 -14q-17 -70 -49 -94q-76 -67 -188 -59q-159 25 -145 104q4 2 30 5q168 -10 240 22q84 45 114 84q2 1 6 4q7 -1 -4 -52z" />
    <glyph glyph-name="k" unicode="k" horiz-adv-x="1026" 
d="M25 1220h198q114 0 130 -160v-347q0 -41 54 -87q86 -34 126 -33l29 1q129 2 154 93q20 98 39 149q31 77 151 82q-57 -43 -68 -113q-2 -160 -55 -221l-41 -43q118 -68 118 -178v-188q0 -120 44 -132l29 -6h70l6 -6v-22l-6 -6h-178q-102 12 -102 123v224q0 103 -109 136
l-60 6q-160 -12 -197 -96l-4 -15v-209q0 -135 -105 -169l-38 -3h-185l-6 6v62l6 6h80q71 0 83 98v873q0 104 -102 104h-61l-6 6v59z" />
    <glyph glyph-name="l" unicode="l" horiz-adv-x="522" 
d="M-28 1253h223q72 0 121 -106q26 -72 26 -176v-682q0 -181 79 -212l25 -3h90l3 -4v-66l-3 -4h-229q-96 0 -131 144q-17 71 -17 136v682q0 124 -68 167q-19 7 -33 7h-86l-3 4v110z" />
    <glyph glyph-name="m" unicode="m" horiz-adv-x="1569" 
d="M-44 1021q3 0 7 -4q4 -18 49 -66q63 -55 138 -89q59 -28 65 -28q83 71 192 71h15q174 0 310 -116q17 -17 27 -36q34 -47 31 -59l7 -1q29 10 43 32q8 32 13 56q31 44 76 67q109 57 227 57h16q135 0 231 -112q78 -103 78 -241v-330q0 -127 52 -155q19 -13 38 -13h50l2 -2
v-49l-2 -2h-158q-64 0 -85 20q-27 22 -34 39q-36 64 -36 135v363q0 132 -97 194q-52 26 -107 26h-14q-113 0 -192 -95q-29 -38 -26 -73v-607l-2 -2h-132l-2 2v606q0 32 -44 85q-61 55 -114 69q-46 15 -89 15h-16q-70 0 -123 -37q0 -3 -31 -28q-50 -65 -50 -148v-366
q0 -94 -51 -161q-30 -37 -94 -37h-153l1 2v49l2 2l57 9q68 19 72 64q1 41 1 67v343q0 83 8 170q-21 8 -73 50q-87 74 -91 238v2q0 24 8 24z" />
    <glyph glyph-name="n" unicode="n" horiz-adv-x="1108" 
d="M651 909h19q136 0 235 -100q97 -108 97 -249v-329q0 -140 55 -166q0 -6 40 -13h104l3 -3v-48l-3 -3h-247q-102 0 -133 149q-4 17 -4 36v354q0 175 -125 227q-51 18 -107 18q-103 -3 -203 -103q-37 -45 -37 -90v-591l-3 -3h-180l-4 3v694q0 88 -72 119l-35 5h-84l-3 3v78
l3 3h227q86 0 133 -95l9 -31q147 132 315 135z" />
    <glyph glyph-name="o" unicode="o" horiz-adv-x="1010" 
d="M796 1042l2 -1l1 -38q0 -112 -86 -153l-16 -6q47 -25 116 -93q113 -137 113 -302q0 -177 -130 -316q-137 -133 -316 -133q-207 0 -353 176q-91 127 -91 268v12q0 198 163 343q128 101 279 101l49 -2q113 24 176 52q45 22 68 46q20 22 24 46h1zM252 448q0 -180 113 -293
q58 -49 123 -49h1q117 0 196 156q36 92 36 173v27q0 141 -88 255q-68 74 -144 74h-1q-119 0 -194 -148q-42 -90 -42 -195z" />
    <glyph glyph-name="p" unicode="p" horiz-adv-x="1010" 
d="M172 1043h3v-2q0 -73 178 -125q44 -13 97 -24l43 3q202 0 347 -164q104 -132 104 -287v-11q0 -208 -175 -357q-128 -94 -276 -94q-145 0 -270 91v-246q0 -89 -57 -158q-36 -33 -80 -33h-243l-3 3v46l3 3h91q73 0 97 82q7 29 7 57v497q0 38 6 65l-1 35v27q0 148 104 280
q63 69 91 84l36 24q-48 14 -73 50q-30 48 -30 103v18zM248 436q0 -177 111 -292q60 -55 131 -55q96 0 171 112q64 104 64 237q0 164 -97 278q-67 69 -141 69q-116 0 -195 -149q-44 -97 -44 -200z" />
    <glyph glyph-name="q" unicode="q" horiz-adv-x="1024" 
d="M803 1052h3l2 -34v-14q0 -113 -93 -154l-11 -3l69 -49q165 -149 165 -354l-3 -48q6 -24 6 -73v-491q0 -115 77 -142l27 -3h94l3 -3v-47l-3 -3h-236q-96 0 -131 102q-18 52 -18 99v238h-1q-124 -89 -264 -89h-14q-170 0 -309 129q-138 143 -138 321v19q0 191 157 339
q134 111 295 111l50 -1q273 57 273 150zM249 440q0 -194 127 -309q58 -39 105 -39h15q100 0 178 127q55 104 55 221q0 192 -122 308q-58 44 -121 44q-114 0 -193 -148q-44 -94 -44 -204z" />
    <glyph glyph-name="r" unicode="r" horiz-adv-x="692" 
d="M555 865l13 2q18 3 32 -43l-1 -7q-5 -4 -37 -17q-20 -9 -42 -19q-23 -10 -77 -48q-36 -20 -68 -57q-34 -49 -31 -89v-586l-2 -2h-178l-2 2v661q0 105 -67 132q-20 5 -38 5h-83l-2 2v79l2 1h218q75 0 121 -69q21 -39 20 -72q73 61 155 102q39 21 67 23z" />
    <glyph glyph-name="s" unicode="s" horiz-adv-x="702" 
d="M311 880h285l3 -3v-76l-3 -3h-269q-66 0 -104 -51q-9 -20 -9 -36v-3q0 -79 134 -150q39 -24 152 -82q44 -27 98 -83q60 -79 60 -135q0 -103 -22 -122q-62 -90 -159 -120q-45 -12 -97 -12h-159l-3 3v46l3 3h139q90 0 138 72q12 24 12 44v15q0 65 -81 121q-127 53 -249 141
q-116 102 -116 198v12q0 78 76 161q75 60 171 60z" />
    <glyph glyph-name="t" unicode="t" horiz-adv-x="674" 
d="M-82 1221h254q84 0 124 -110q12 -45 12 -78v-172h208l3 -3v-81l-3 -3h-208v-557q0 -84 69 -114q19 -7 50 -7h89l3 -3v-89l-3 -2h-233q-74 0 -128 64q-37 44 -37 143v801q0 110 -79 135l-31 3h-90l-3 3v67z" />
    <glyph glyph-name="u" unicode="u" horiz-adv-x="1059" 
d="M499 -2h-18q-135 0 -234 99q-96 107 -96 248v327q0 139 -55 164q0 7 -40 14h-103l-3 3v47l3 3h245q102 0 132 -148q5 -17 5 -36v-351q0 -174 123 -226q52 -18 106 -18q80 0 179 99q37 45 37 90v587l3 3h179l3 -3v-689q0 -88 72 -119l35 -4h83l3 -3v-78l-3 -3h-225
q-85 0 -132 94l-9 31q-146 -131 -290 -131z" />
    <glyph glyph-name="v" unicode="v" horiz-adv-x="993" 
d="M-21 885h243q89 0 144 -159l195 -438q9 8 193 458q14 34 14 51v5q0 32 -41 43h-60l-5 4v32l5 4h245l2 -2h2q-256 -635 -366 -881l-20 -11q-32 0 -61 85q-257 569 -323 692q-23 29 -56 36l-27 -2h-84l-4 4v75z" />
    <glyph glyph-name="w" unicode="w" horiz-adv-x="1415" 
d="M-70 885h243q89 0 144 -159l195 -438q9 8 193 458q14 34 14 51v5q0 32 -41 43h-60l-5 4v32l5 4h245l2 -2h2q-256 -635 -366 -881l-20 -11q-32 0 -61 85q-257 569 -323 692q-23 29 -56 36l-27 -2h-84l-4 4v75zM516 881h243q89 0 144 -159l195 -438q9 8 193 458
q14 34 14 51v5q0 32 -41 43h-60l-5 4v32l5 4h245l2 -2h2q-256 -635 -366 -881l-20 -11q-32 0 -61 85q-257 569 -323 692q-23 29 -56 36l-27 -2h-84l-4 4v75z" />
    <glyph glyph-name="x" unicode="x" horiz-adv-x="1010" 
d="M-42 925h235q86 0 139 -99l189 -272q9 5 187 285q13 21 13 32v2q0 20 -39 27h-59l-4 3v19l4 3h237l3 -1h2q-248 -394 -355 -547l-19 -7q-31 0 -59 53q-249 353 -313 429q-22 18 -54 23l-26 -2h-81l-4 3v46zM1041 1h-235q-86 0 -139 99l-189 272q-9 -6 -187 -285
q-13 -21 -13 -32v-3q0 -19 39 -26h59l4 -3v-20l-4 -2h-237l-3 1h-2q248 394 355 547l19 7q31 0 59 -53q249 -354 313 -430q22 -17 54 -22l26 1h81l4 -3v-46z" />
    <glyph glyph-name="y" unicode="y" horiz-adv-x="868" 
d="M-11 883h233q99 0 152 -183l189 -454h3q200 514 200 537v12q0 44 -48 44h-48l-7 8v28l7 8h237l3 -4h4l-455 -1198q-49 -84 -92 -84q-169 29 -169 47q11 44 17 44l87 -23q56 -16 128 219l48 119q-243 585 -333 764q-30 28 -56 28h-100l-7 8v72z" />
    <glyph glyph-name="z" unicode="z" horiz-adv-x="727" 
d="M543 820q75 -83 75 -161v-12q0 -96 -116 -198q-122 -88 -248 -141q-82 -56 -82 -121v-15q0 -20 12 -44q48 -72 138 -72h139l3 -3v-46l-3 -3h-159q-52 0 -97 12q-97 30 -173 120q-23 19 -23 122q0 56 75 135q55 56 99 83q112 58 151 82q135 71 135 150v3q0 16 -9 36
q-38 51 -105 51h-269l106 3v76l3 3h177q95 0 171 -60zM679 926l3 12q-19 -78 -70 -116q-31 -32 -116 -18q-98 17 -110 73q3 2 35 3q115 -7 174 13q59 37 83 71q1 0 4 3q5 -1 -3 -41z" />
    <glyph glyph-name="braceleft" unicode="{" 
d="M240 698q172 5 223 71t51 133v468q0 74 77 141.5t185 67.5h108v-50h-90q-61 0 -107 -33.5t-47 -91.5v-500q0 -83 -60.5 -158.5t-142.5 -76.5v-2q82 -1 143 -76t61 -158l-1 -500q1 -58 47 -91.5t107 -33.5h90v-50h-108q-108 0 -184.5 67.5t-77.5 141.5v468q0 66 -51 132
t-223 71v60z" />
    <glyph glyph-name="bar" unicode="|" 
d="M427 1577h160v-1995h-160v1995z" />
    <glyph glyph-name="braceright" unicode="}" 
d="M774 638q-172 -5 -223 -71t-51 -132v-468q-1 -74 -77.5 -141.5t-184.5 -67.5h-108v50h90q61 0 107 33.5t47 91.5l-1 500q0 83 61 158t144 76v2q-83 1 -143.5 76.5t-60.5 158.5v500q-1 58 -47 91.5t-107 33.5h-90v50h108q108 0 185 -67.5t77 -141.5v-468q0 -67 51 -133
t223 -71v-60z" />
    <glyph glyph-name="asciitilde" unicode="~" 
d="M923 878v-156q-63 -72 -122 -97.5t-116 -25.5q-60 0 -177.5 48.5t-176.5 48.5q-51 0 -107.5 -28t-129.5 -112v156q64 73 123 99t114 26q64 0 181.5 -49.5t172.5 -49.5q52 0 108.5 28t129.5 112z" />
    <glyph glyph-name="exclamdown" unicode="&#xa1;" horiz-adv-x="672" 
 />
    <glyph glyph-name="cent" unicode="&#xa2;" horiz-adv-x="1139" 
 />
    <glyph glyph-name="sterling" unicode="&#xa3;" 
 />
    <glyph glyph-name="currency" unicode="&#xa4;" 
 />
    <glyph glyph-name="yen" unicode="&#xa5;" horiz-adv-x="1262" 
 />
    <glyph glyph-name="brokenbar" unicode="&#xa6;" 
 />
    <glyph glyph-name="section" unicode="&#xa7;" 
 />
    <glyph glyph-name="dieresis" unicode="&#xa8;" horiz-adv-x="1024" 
 />
    <glyph glyph-name="ordfeminine" unicode="&#xaa;" horiz-adv-x="648" 
 />
    <glyph glyph-name="guillemotleft" unicode="&#xab;" horiz-adv-x="944" 
 />
    <glyph glyph-name="logicalnot" unicode="&#xac;" 
 />
    <glyph glyph-name="macron" unicode="&#xaf;" horiz-adv-x="670" 
 />
    <glyph glyph-name="degree" unicode="&#xb0;" horiz-adv-x="674" 
 />
    <glyph glyph-name="plusminus" unicode="&#xb1;" 
 />
    <glyph glyph-name="uni00B2" unicode="&#xb2;" 
 />
    <glyph glyph-name="uni00B3" unicode="&#xb3;" 
 />
    <glyph glyph-name="acute" unicode="&#xb4;" horiz-adv-x="1024" 
 />
    <glyph glyph-name="mu" unicode="&#xb5;" horiz-adv-x="1180" 
 />
    <glyph glyph-name="paragraph" unicode="&#xb6;" horiz-adv-x="1024" 
 />
    <glyph glyph-name="periodcentered" unicode="&#xb7;" horiz-adv-x="508" 
 />
    <glyph glyph-name="periodcentered" unicode="&#x2219;" horiz-adv-x="508" 
 />
    <glyph glyph-name="cedilla" unicode="&#xb8;" horiz-adv-x="1024" 
 />
    <glyph glyph-name="uni00B9" unicode="&#xb9;" 
 />
    <glyph glyph-name="ordmasculine" unicode="&#xba;" horiz-adv-x="718" 
 />
    <glyph glyph-name="guillemotright" unicode="&#xbb;" horiz-adv-x="944" 
 />
    <glyph glyph-name="onequarter" unicode="&#xbc;" horiz-adv-x="1708" 
 />
    <glyph glyph-name="onehalf" unicode="&#xbd;" horiz-adv-x="1964" 
 />
    <glyph glyph-name="threequarters" unicode="&#xbe;" horiz-adv-x="1708" 
 />
    <glyph glyph-name="questiondown" unicode="&#xbf;" horiz-adv-x="748" 
 />
    <glyph glyph-name="Agrave" unicode="&#xc0;" horiz-adv-x="1540" 
 />
    <glyph glyph-name="Aacute" unicode="&#xc1;" horiz-adv-x="1540" 
 />
    <glyph glyph-name="Acircumflex" unicode="&#xc2;" horiz-adv-x="1540" 
 />
    <glyph glyph-name="Atilde" unicode="&#xc3;" horiz-adv-x="1540" 
 />
    <glyph glyph-name="Adieresis" unicode="&#xc4;" horiz-adv-x="1540" 
 />
    <glyph glyph-name="Aring" unicode="&#xc5;" horiz-adv-x="1540" 
 />
    <glyph glyph-name="AE" unicode="&#xc6;" horiz-adv-x="2118" 
 />
    <glyph glyph-name="Ccedilla" unicode="&#xc7;" horiz-adv-x="1399" 
 />
    <glyph glyph-name="Egrave" unicode="&#xc8;" horiz-adv-x="1151" 
 />
    <glyph glyph-name="Eacute" unicode="&#xc9;" horiz-adv-x="1151" 
 />
    <glyph glyph-name="Ecircumflex" unicode="&#xca;" horiz-adv-x="1151" 
 />
    <glyph glyph-name="Edieresis" unicode="&#xcb;" horiz-adv-x="1151" 
 />
    <glyph glyph-name="Igrave" unicode="&#xcc;" horiz-adv-x="657" 
 />
    <glyph glyph-name="Iacute" unicode="&#xcd;" horiz-adv-x="657" 
 />
    <glyph glyph-name="Icircumflex" unicode="&#xce;" horiz-adv-x="657" 
 />
    <glyph glyph-name="Idieresis" unicode="&#xcf;" horiz-adv-x="657" 
 />
    <glyph glyph-name="Eth" unicode="&#xd0;" horiz-adv-x="1518" 
 />
    <glyph glyph-name="Ntilde" unicode="&#xd1;" horiz-adv-x="1554" 
 />
    <glyph glyph-name="Ograve" unicode="&#xd2;" horiz-adv-x="1614" 
 />
    <glyph glyph-name="Oacute" unicode="&#xd3;" horiz-adv-x="1614" 
 />
    <glyph glyph-name="Ocircumflex" unicode="&#xd4;" horiz-adv-x="1614" 
 />
    <glyph glyph-name="Otilde" unicode="&#xd5;" horiz-adv-x="1614" 
 />
    <glyph glyph-name="Odieresis" unicode="&#xd6;" horiz-adv-x="1614" 
 />
    <glyph glyph-name="multiply" unicode="&#xd7;" 
d="M507 618l-247 -247l-99 99l247 247l-247 248l99 98l247 -247l248 247l98 -99l-247 -247l247 -247l-99 -99z" />
    <glyph glyph-name="Oslash" unicode="&#xd8;" horiz-adv-x="1614" 
 />
    <glyph glyph-name="Ugrave" unicode="&#xd9;" horiz-adv-x="1501" 
 />
    <glyph glyph-name="Uacute" unicode="&#xda;" horiz-adv-x="1501" 
 />
    <glyph glyph-name="Ucircumflex" unicode="&#xdb;" horiz-adv-x="1501" 
 />
    <glyph glyph-name="Udieresis" unicode="&#xdc;" horiz-adv-x="1501" 
 />
    <glyph glyph-name="Yacute" unicode="&#xdd;" horiz-adv-x="1233" 
 />
    <glyph glyph-name="Thorn" unicode="&#xde;" horiz-adv-x="1120" 
 />
    <glyph glyph-name="germandbls" unicode="&#xdf;" horiz-adv-x="1251" 
 />
    <glyph glyph-name="agrave" unicode="&#xe0;" horiz-adv-x="922" 
 />
    <glyph glyph-name="aacute" unicode="&#xe1;" horiz-adv-x="922" 
 />
    <glyph glyph-name="acircumflex" unicode="&#xe2;" horiz-adv-x="922" 
 />
    <glyph glyph-name="atilde" unicode="&#xe3;" horiz-adv-x="922" 
 />
    <glyph glyph-name="adieresis" unicode="&#xe4;" horiz-adv-x="922" 
 />
    <glyph glyph-name="aring" unicode="&#xe5;" horiz-adv-x="922" 
 />
    <glyph glyph-name="ae" unicode="&#xe6;" horiz-adv-x="1454" 
d="M210 912h234q50 0 117 -27q98 -44 139 -137q11 -27 17 -53q9 -43 9 -67l1 -26q163 34 192 42q61 22 81 63q10 21 10 38v3h1q12 -29 12 -57q0 -73 -79 -127q-24 -16 -53 -26q-23 -7 -63 -13q-54 -10 -101 -18v-28v-288q0 -44 15 -87q8 -19 24 -36q22 -18 45 -18h46l1 -1
v-52l-1 -1h-158q-92 0 -128 99q-7 15 -14 48l-2 12v0q-152 -153 -311 -153q-58 0 -117 22q-20 10 -41 25q-77 62 -77 148v4q0 63 42 132q35 53 100 97q41 28 89 51q57 28 139 53q64 18 94 18q34 5 78 13v71q0 47 -22 108q-8 17 -22 38q-18 25 -50 35q-6 3 -52 4l-195 6l-1 1
v83zM209 249v-1q0 -50 32 -97q32 -39 86 -39v0q43 0 90 26l134 100v242q-84 -16 -149 -38q-82 -27 -113 -52q-33 -26 -53 -55q-27 -42 -27 -86zM951 928h15q223 0 354 -169q53 -84 53 -213q0 -208 -154 -316q-90 -58 -226 -58q-82 0 -163 21v-1q43 -84 164 -128
q40 -13 64 -13h182l3 -3v-49l-3 -3h-274q-106 0 -244 79q-55 40 -86 89q-82 146 -82 368v33q0 135 82 216q29 35 61 56q129 91 254 91zM760 550q0 -168 116 -261q48 -29 89 -29q109 0 177 140q30 73 30 153q0 153 -102 249q-52 40 -104 40q-106 0 -175 -136
q-31 -74 -31 -156z" />
    <glyph glyph-name="ccedilla" unicode="&#xe7;" horiz-adv-x="905" 
 />
    <glyph glyph-name="egrave" unicode="&#xe8;" horiz-adv-x="909" 
 />
    <glyph glyph-name="eacute" unicode="&#xe9;" horiz-adv-x="909" 
 />
    <glyph glyph-name="ecircumflex" unicode="&#xea;" horiz-adv-x="909" 
 />
    <glyph glyph-name="edieresis" unicode="&#xeb;" horiz-adv-x="909" 
 />
    <glyph glyph-name="igrave" unicode="&#xec;" horiz-adv-x="514" 
 />
    <glyph glyph-name="iacute" unicode="&#xed;" horiz-adv-x="514" 
 />
    <glyph glyph-name="icircumflex" unicode="&#xee;" horiz-adv-x="514" 
 />
    <glyph glyph-name="idieresis" unicode="&#xef;" horiz-adv-x="514" 
 />
    <glyph glyph-name="eth" unicode="&#xf0;" horiz-adv-x="1139" 
 />
    <glyph glyph-name="ntilde" unicode="&#xf1;" horiz-adv-x="1108" 
 />
    <glyph glyph-name="ograve" unicode="&#xf2;" horiz-adv-x="1010" 
 />
    <glyph glyph-name="oacute" unicode="&#xf3;" horiz-adv-x="1010" 
 />
    <glyph glyph-name="ocircumflex" unicode="&#xf4;" horiz-adv-x="1010" 
 />
    <glyph glyph-name="otilde" unicode="&#xf5;" horiz-adv-x="1010" 
 />
    <glyph glyph-name="odieresis" unicode="&#xf6;" horiz-adv-x="1010" 
 />
    <glyph glyph-name="divide" unicode="&#xf7;" 
 />
    <glyph glyph-name="oslash" unicode="&#xf8;" horiz-adv-x="1010" 
 />
    <glyph glyph-name="ugrave" unicode="&#xf9;" horiz-adv-x="1059" 
 />
    <glyph glyph-name="uacute" unicode="&#xfa;" horiz-adv-x="1059" 
 />
    <glyph glyph-name="ucircumflex" unicode="&#xfb;" horiz-adv-x="1059" 
 />
    <glyph glyph-name="udieresis" unicode="&#xfc;" horiz-adv-x="1059" 
 />
    <glyph glyph-name="yacute" unicode="&#xfd;" horiz-adv-x="868" 
 />
    <glyph glyph-name="thorn" unicode="&#xfe;" horiz-adv-x="1010" 
 />
    <glyph glyph-name="ydieresis" unicode="&#xff;" horiz-adv-x="868" 
 />
    <glyph glyph-name="tilde" unicode="&#x2dc;" horiz-adv-x="1024" 
 />
    <glyph glyph-name="endash" unicode="&#x2013;" horiz-adv-x="1108" 
 />
    <glyph glyph-name="emdash" unicode="&#x2014;" horiz-adv-x="2048" 
 />
    <glyph glyph-name="quoteleft" unicode="&#x2018;" horiz-adv-x="557" 
 />
    <glyph glyph-name="quoteright" unicode="&#x2019;" horiz-adv-x="557" 
 />
    <glyph glyph-name="quotesinglbase" unicode="&#x201a;" horiz-adv-x="557" 
 />
    <glyph glyph-name="quotedblleft" unicode="&#x201c;" horiz-adv-x="910" 
 />
    <glyph glyph-name="quotedblright" unicode="&#x201d;" horiz-adv-x="910" 
 />
    <glyph glyph-name="quotedblbase" unicode="&#x201e;" horiz-adv-x="910" 
 />
    <glyph glyph-name="dagger" unicode="&#x2020;" 
 />
    <glyph glyph-name="daggerdbl" unicode="&#x2021;" 
 />
    <glyph glyph-name="bullet" unicode="&#x2022;" horiz-adv-x="1024" 
 />
    <glyph glyph-name="ellipsis" unicode="&#x2026;" horiz-adv-x="2048" 
 />
    <glyph glyph-name="guilsinglleft" unicode="&#x2039;" horiz-adv-x="631" 
 />
    <glyph glyph-name="guilsinglright" unicode="&#x203a;" horiz-adv-x="631" 
 />
    <glyph glyph-name="Euro" unicode="&#x20ac;" 
 />
    <glyph glyph-name="trademark" unicode="&#x2122;" horiz-adv-x="1497" 
 />
    <glyph glyph-name="Scaron" unicode="&#x160;" horiz-adv-x="1085" 
d="M485 1190q147 0 316 -107q36 -21 79 -54q170 -137 170 -316q0 -188 -182 -267q-23 -8 -29 -9q19 12 44 34q38 39 49 62q13 20 26 54q21 68 21 127q0 87 -57 172q-48 87 -175 157q-122 65 -239 65h-13q-158 0 -270 -110q-43 -46 -60 -79q-15 -27 -24 -54q-12 -33 -12 -73
q0 -106 54 -179v-1v0q-36 25 -55 89q-11 46 -11 83q0 137 104 242l21 19v0q-28 -11 -71 -51q-43 -46 -58 -77q-39 -71 -39 -143v-9q0 -112 96 -202q23 -19 37 -27v-1q-34 8 -72 38q-95 80 -95 204q0 89 44 183q67 132 210 192q95 38 191 38z" />
    <glyph glyph-name="OE" unicode="&#x152;" horiz-adv-x="2765" 
d="M1003 1426h14q209 0 340 -120q43 -44 56 -83q25 -64 25 -110v-10q0 -97 -104 -131q-24 -6 -43 -6h-4q-72 0 -108 57q-8 17 -8 30v8q0 31 37 47l9 1q19 0 25 -27v-4q0 -19 -23 -23q-22 4 -22 15h-1l-3 -11q0 -16 16 -33q19 -16 38 -16q43 0 77 49q13 21 13 41
q0 78 -106 141q-101 55 -253 55q-105 0 -184 -29v-1h58q156 0 222 -66q40 -37 50 -66q15 -35 15 -62q0 -68 -64 -109q-15 -7 -26 -8v1q43 32 43 52q4 13 4 44q0 62 -37 93q-41 41 -126 60q-38 7 -76 7h-19q-99 0 -209 -33v-1h2q46 4 88 5q121 0 195 -61q48 -47 48 -117
q0 -24 -8 -46h-2v22q0 102 -71 131q-28 15 -76 25q-67 9 -96 9q-147 0 -286 -92q-92 -64 -126 -170q-28 -83 -28 -163v-9q0 -173 122 -292q74 -60 141 -72v-2h-2q-72 0 -159 65q-60 54 -76 82q-26 39 -36 61h-1v-2q7 -89 65 -224q33 -70 87 -149q46 -67 128 -156l21 -20h-1
q-61 37 -149 117q-66 61 -105 110q-50 66 -74 114l-131 299l41 295q80 71 80 82q42 60 128 149q134 122 275 181q187 76 380 76zM2557 1091q113 0 141 -109q7 -32 7 -70q0 -109 -51 -168q-33 -38 -63 -57q-88 -55 -199 -55q-66 0 -159 26q-105 24 -175 24h-11
q-140 0 -180 -100q-9 -27 -9 -46q0 -46 30 -86q31 -31 65 -31q35 0 48 42l1 8q-1 11 -3 11q-9 -11 -19 -11h-4q-21 3 -21 18v5q4 22 22 22h4q22 0 32 -30q2 -9 2 -18v-4q0 -64 -81 -77l-16 -1q-87 0 -139 103q-16 42 -16 74q0 61 43 119q34 37 64 52q27 15 81 32l40 10v1h-6
h-23q-142 0 -238 -83q-49 -52 -60 -88q-21 -52 -21 -69h-2v9q0 127 142 214q90 48 237 48q111 0 252 -29q30 -3 63 -3q169 0 224 68q19 35 19 62q0 51 -58 70l-19 2h-4q-13 0 -24 -3l-1 1q19 32 60 32h2q24 0 51 -11q-14 27 -56 42q-20 5 -33 5q-49 0 -82 -40v1
q46 88 143 88zM1829 545q0 -57 38 -98v1q-24 48 -24 81v2q0 93 101 149q55 26 126 26h8q87 0 230 -39q47 -9 90 -9q54 0 108 15v1v0q-27 -6 -60 -6q-93 0 -245 46q-57 15 -158 15h-1q-146 0 -202 -123q-11 -33 -11 -61z" />
    <glyph glyph-name="Zcaron" unicode="&#x17d;" horiz-adv-x="1124" 
d="M796 1432l292 -662l-456 -212l-62 124q315 146 322 146l-234 540zM609 1331h2l49 -113v-3l-316 -139l60 -144l282 120h2q45 -96 45 -107l-277 -127l120 -271q-130 -65 -137 -65l-284 650q443 199 454 199zM159 725h5l251 -432h4l432 247h5q-69 -286 -73 -290l-439 -249
h-4l-256 434v2z" />
    <glyph glyph-name="zcaron" unicode="&#x17e;" horiz-adv-x="727" 
d="M543 820q75 -83 75 -161v-12q0 -96 -116 -198q-122 -88 -248 -141q-82 -56 -82 -121v-15q0 -20 12 -44q48 -72 138 -72h139l3 -3v-46l-3 -3h-159q-52 0 -97 12q-97 30 -173 120q-23 19 -23 122q0 56 75 135q55 56 99 83q112 58 151 82q135 71 135 150v3q0 16 -9 36
q-38 51 -105 51h-269l106 3v76l3 3h177q95 0 171 -60zM679 926l3 12q-19 -78 -70 -116q-31 -32 -116 -18q-98 17 -110 73q3 2 35 3q115 -7 174 13q59 37 83 71q1 0 4 3q5 -1 -3 -41z" />
    <glyph glyph-name="Ydieresis" unicode="&#x178;" horiz-adv-x="1233" 
 />
    <glyph glyph-name="oe" unicode="&#x153;" horiz-adv-x="1919" 
d="M796 1042l2 -1l1 -38q0 -112 -86 -153l-16 -6q47 -25 116 -93q113 -137 113 -302q0 -177 -130 -316q-137 -133 -316 -133q-207 0 -353 176q-91 127 -91 268v12q0 198 163 343q128 101 279 101l49 -2q113 24 176 52q45 22 68 46q20 22 24 46h1zM252 448q0 -180 113 -293
q58 -49 123 -49h1q117 0 196 156q36 92 36 173v27q0 141 -88 255q-68 74 -144 74h-1q-119 0 -194 -148q-42 -90 -42 -195zM1463 931h15q222 0 354 -169q53 -84 53 -213q0 -208 -154 -316q-91 -58 -227 -58q-81 0 -163 21v-1q44 -84 165 -128q39 -13 64 -13h182l3 -3v-49
l-3 -3h-274q-107 0 -245 79q-55 40 -86 89q-81 146 -81 368v33q0 135 81 216q30 35 61 56q130 91 255 91zM1272 553q0 -168 115 -261q49 -29 89 -29q110 0 178 140q30 73 30 153q0 153 -103 249q-51 40 -103 40q-106 0 -175 -136q-31 -74 -31 -156z" />
    <glyph glyph-name="scaron" unicode="&#x161;" horiz-adv-x="702" 
d="M311 880h285l3 -3v-76l-3 -3h-269q-66 0 -104 -51q-9 -20 -9 -36v-3q0 -79 134 -150q39 -24 152 -82q44 -27 98 -83q60 -79 60 -135q0 -103 -22 -122q-62 -90 -159 -120q-45 -12 -97 -12h-159l-3 3v46l3 3h139q90 0 138 72q12 24 12 44v15q0 65 -81 121q-127 53 -249 141
q-116 102 -116 198v12q0 78 76 161q75 60 171 60z" />
    <glyph glyph-name="perthousand" unicode="&#x2030;" horiz-adv-x="342" 
 />
    <glyph glyph-name="circumflex" unicode="&#x2c6;" horiz-adv-x="1707" 
 />
    <glyph glyph-name="florin" unicode="&#x192;" horiz-adv-x="559" 
d="M266 1210h233l2 -2v-70l-2 -2h-97q-55 0 -82 -68q-10 -31 -10 -92v-123h145l2 -2v-84l-2 -2h-145v-587q0 -130 -103 -174q-31 -11 -55 -11h-214l-2 2v91l2 2h95q84 0 100 104l1 23v549h-196l-2 1v85l2 2h169l27 1v177q0 58 34 123q38 57 98 57z" />
    <glyph glyph-name="equal" unicode="=" horiz-adv-x="1707" 
 />
    <glyph glyph-name="parenright" unicode=")" horiz-adv-x="1707" 
 />
    <glyph glyph-name="parenleft" unicode="(" horiz-adv-x="1707" 
 />
  </font>
</defs>
</svg>
